<svg fill="none" viewBox="0 0 24 24" xmlns="http://www.w3.org/2000/svg"><path clip-rule="evenodd" d="m11.1663.0250837c.8147.1500773 1.3534.9321853 1.2034 1.7468863l-.7935 4.30712h3.5811l.8935-4.85059c.1501-.814707.9322-1.353493 1.7469-1.2034163.8147.1500773 1.3535.9321853 1.2034 1.7468863l-.7934 4.30712h4.2918c.8285 0 1.5.67156 1.5 1.49997s-.6715 1.49997-1.5 1.49997h-4.8444l-1.0762 5.84197h4.2628c.8284 0 1.4999.6716 1.4999 1.5s-.6715 1.5-1.4999 1.5h-4.8154l-.8935 4.8505c-.1501.8147-.9322 1.3535-1.7469 1.2035-.8147-.1501-1.3535-.9322-1.2034-1.7469l.7934-4.3071h-3.58105l-.89353 4.8505c-.15007.8147-.93218 1.3535-1.74689 1.2035-.8147-.1501-1.35348-.9322-1.20341-1.7469l.79342-4.3071h-4.84447c-.828411 0-1.49997-.6716-1.49997-1.5s.671559-1.5 1.49997-1.5h5.39709l1.07615-5.84197h-4.26276c-.82841 0-1.49997-.67156-1.49997-1.49997s.67156-1.49997 1.49997-1.49997h4.81539l.89352-4.85059c.15008-.814707.93224-1.353493 1.74694-1.2034163zm-.1427 9.0539463-1.07613 5.84197h3.58103l1.0762-5.84197z" fill="#758ca3" fill-rule="evenodd"/></svg>